<svg width="749" height="1032" viewBox="0 0 749 1032" fill="none" xmlns="http://www.w3.org/2000/svg">
<circle cx="549" cy="516" r="516" fill="#9360FF" fill-opacity="0.7"/>
<path d="M1 295.979C2.2 281.179 2 266.179 5 251.879C10.7 224.379 29.2 207.179 55.2 198.779C92.3 186.779 130.6 180.079 169.5 176.379C172.8 176.079 176.3 176.479 179.6 175.879C235.7 166.079 285.6 182.079 332.4 211.979C348.2 222.079 364.6 231.379 381 240.479C413.7 258.679 449 259.279 484.9 255.479C517.5 251.979 550.1 248.879 582.8 253.279C599.6 255.579 612.8 270.779 610 287.279C598 358.779 578.6 427.679 532.9 485.979C515.5 508.079 496.6 529.079 477.8 549.979C456.5 573.679 440.6 601.079 426.1 628.979C397.2 684.779 352.1 720.379 292.7 737.579C278.3 741.779 262.1 741.379 246.9 740.479C232.5 739.579 222.9 728.679 216.2 716.679C210.1 705.579 204.4 693.779 201.1 681.579C192.7 651.079 176.2 626.879 149.6 609.679C92.1 572.379 61 515.679 36.3 454.379C21.4 417.479 11.1 379.279 4.9 339.979C2.7 325.479 2.3 310.679 1 295.979ZM200 200.479C162.7 199.779 128.2 208.179 94.5 220.379C62.8 231.979 39.9 252.679 34.4 287.279C31.5 305.679 29.1 324.979 31.6 343.279C38.6 394.279 53.9 443.079 82.8 486.379C109.6 526.479 142.9 558.579 192.5 569.279C208.9 572.779 224.8 578.579 240.8 583.779C264.4 591.379 283.6 605.779 301.2 622.779C318.1 639.079 326.1 640.279 345.7 628.079C355.9 621.679 365.7 614.279 374.1 605.679C411.8 567.379 449 528.579 486.2 489.779C495.9 479.579 506 469.479 513.7 457.779C533.5 427.679 548.8 395.779 547.3 358.279C546.1 327.779 525.3 306.579 494.8 305.779C478 305.379 461.1 306.279 444.4 305.479C415.9 304.179 388.2 298.979 364.5 281.679C349.9 270.979 335.7 259.579 322 247.779C286.4 217.279 246.5 198.779 200 200.479Z" stroke="white" stroke-opacity="0.3" stroke-miterlimit="10"/>
<path d="M200 200.479C246.6 198.779 286.4 217.279 321.9 247.679C335.7 259.479 349.8 270.879 364.4 281.579C388.1 298.879 415.8 304.079 444.3 305.379C461.1 306.179 477.9 305.179 494.7 305.679C525.2 306.479 546 327.679 547.2 358.179C548.7 395.679 533.3 427.579 513.6 457.679C505.9 469.379 495.8 479.479 486.1 489.679C448.9 528.479 411.7 567.279 374 605.579C365.6 614.079 355.8 621.579 345.6 627.979C326 640.179 318 638.979 301.1 622.679C283.5 605.679 264.2 591.279 240.7 583.679C224.7 578.479 208.8 572.779 192.4 569.179C142.9 558.479 109.6 526.479 82.8 486.279C53.9 442.979 38.6 394.179 31.6 343.179C29.1 324.979 31.5 305.579 34.4 287.179C39.9 252.679 62.9 231.979 94.5 220.379C128.1 208.079 162.7 199.779 200 200.479ZM270.8 523.579C290.3 523.579 309.9 524.779 329.3 523.179C345.1 521.879 362 519.979 376.1 513.479C397.8 503.379 418.3 490.079 438 476.179C457.6 462.279 470.7 442.379 479.5 420.179C489.9 393.979 478.5 371.279 451.3 363.579C442.3 360.979 432.9 359.679 423.6 358.079C396.6 353.579 371.5 344.479 350.9 325.679C330.6 307.079 310.6 288.179 290.7 269.179C272.3 251.579 250.7 239.779 226.1 233.579C187 223.579 149.9 232.679 114.3 247.979C91.2 257.879 75.3 275.679 67.4 300.379C60.6 321.579 61.5 342.879 64.2 364.179C68.3 396.879 82.1 426.379 98.9 453.879C126.2 498.679 165.6 524.879 220.2 523.579C237.2 523.279 254 523.579 270.8 523.579Z" stroke="white" stroke-opacity="0.3" stroke-miterlimit="10"/>
<path d="M270.8 523.579C254 523.579 237.2 523.279 220.3 523.679C165.7 524.879 126.4 498.779 99 453.979C82.2 426.479 68.3 396.979 64.3 364.279C61.7 342.879 60.7 321.579 67.5 300.479C75.5 275.579 91.4 257.779 114.5 247.879C150.1 232.579 187.1 223.479 226.3 233.479C250.9 239.779 272.4 251.479 290.9 269.079C310.8 288.079 330.8 306.979 351.1 325.579C371.6 344.379 396.7 353.379 423.8 357.979C433.1 359.579 442.4 360.879 451.5 363.479C478.7 371.179 490.1 393.879 479.7 420.079C470.8 442.279 457.8 462.279 438.2 476.079C418.5 489.979 398 503.279 376.3 513.379C362.2 519.979 345.4 521.779 329.5 523.079C309.9 524.779 290.3 523.579 270.8 523.579ZM186.3 265.179C186.1 265.179 183.4 265.179 180.7 265.179C139.2 265.579 108.1 290.879 97.7 330.779C90.9 356.879 98.9 380.479 108.5 403.079C125.6 443.279 153.6 471.679 199.2 480.479C219.1 484.379 237.9 481.779 257 478.779C282.9 474.779 308.5 469.079 331.5 455.679C353 443.179 359.3 423.179 348.4 400.679C345.5 394.679 341.9 388.879 338 383.479C315.8 353.179 293.9 322.779 266.4 296.779C244.3 275.879 219.5 263.779 186.3 265.179Z" stroke="white" stroke-opacity="0.3" stroke-miterlimit="10"/>
<path d="M186.3 265.179C219.5 263.779 244.2 275.879 266.4 296.779C293.9 322.879 315.8 353.279 338 383.479C342 388.879 345.5 394.679 348.4 400.679C359.3 423.179 353 443.079 331.5 455.679C308.4 469.079 282.9 474.879 257 478.779C238 481.679 219.2 484.279 199.2 480.479C153.6 471.679 125.7 443.279 108.5 403.079C98.9 380.479 90.8 356.879 97.7 330.779C108.2 290.879 139.2 265.579 180.7 265.179C183.4 265.079 186.1 265.179 186.3 265.179ZM187.9 305.479C152.4 305.479 130 334.479 137.5 371.279C142 393.079 153.2 410.279 170.6 422.579C199.4 442.979 227.7 443.279 257.5 425.679C272.7 416.679 279.9 396.979 273.5 379.979C267.8 365.079 260.9 350.079 251.6 337.279C236.8 316.979 216.5 304.379 187.9 305.479Z" stroke="white" stroke-opacity="0.3" stroke-miterlimit="10"/>
<path d="M196.568 337.514C211.499 336.943 222.097 343.479 229.824 354.008C234.679 360.647 238.282 368.427 241.258 376.155C244.651 384.973 240.84 395.191 232.904 399.859C217.346 408.987 202.572 408.884 187.536 398.251C178.504 391.871 172.604 383.002 170.255 371.643C166.339 352.607 178.034 337.514 196.568 337.514Z" stroke="white" stroke-opacity="0.3" stroke-miterlimit="10"/>
</svg>
