<svg width="119" height="118" viewBox="0 0 119 118" fill="none" xmlns="http://www.w3.org/2000/svg">
<path fill-rule="evenodd" clip-rule="evenodd" d="M0.5 0C0.223858 0 0 0.223858 0 0.5C0 0.776142 0.223858 1 0.5 1C0.776142 1 1 0.776142 1 0.5C1 0.223858 0.776142 0 0.5 0ZM17.5 0C17.2239 0 17 0.223858 17 0.5C17 0.776142 17.2239 1 17.5 1C17.7761 1 18 0.776142 18 0.5C18 0.223858 17.7761 0 17.5 0ZM38 0.5C38 0.223858 38.2239 0 38.5 0C38.7761 0 39 0.223858 39 0.5C39 0.776142 38.7761 1 38.5 1C38.2239 1 38 0.776142 38 0.5ZM66.5 0C66.2239 0 66 0.223858 66 0.5C66 0.776142 66.2239 1 66.5 1C66.7761 1 67 0.776142 67 0.5C67 0.223858 66.7761 0 66.5 0ZM8 0.5C8 0.223858 8.22386 0 8.5 0C8.77614 0 9 0.223858 9 0.5C9 0.776142 8.77614 1 8.5 1C8.22386 1 8 0.776142 8 0.5ZM27.5 0C27.2239 0 27 0.223858 27 0.5C27 0.776142 27.2239 1 27.5 1C27.7761 1 28 0.776142 28 0.5C28 0.223858 27.7761 0 27.5 0ZM52 0.5C52 0.223858 52.2239 0 52.5 0C52.7761 0 53 0.223858 53 0.5C53 0.776142 52.7761 1 52.5 1C52.2239 1 52 0.776142 52 0.5ZM80.5 0C80.2239 0 80 0.223858 80 0.5C80 0.776142 80.2239 1 80.5 1C80.7761 1 81 0.776142 81 0.5C81 0.223858 80.7761 0 80.5 0ZM91 0.5C91 0.223858 91.2239 0 91.5 0C91.7761 0 92 0.223858 92 0.5C92 0.776142 91.7761 1 91.5 1C91.2239 1 91 0.776142 91 0.5ZM101.5 0C101.224 0 101 0.223858 101 0.5C101 0.776142 101.224 1 101.5 1C101.776 1 102 0.776142 102 0.5C102 0.223858 101.776 0 101.5 0ZM110 0.5C110 0.223858 110.224 0 110.5 0C110.776 0 111 0.223858 111 0.5C111 0.776142 110.776 1 110.5 1C110.224 1 110 0.776142 110 0.5ZM118.5 0C118.224 0 118 0.223858 118 0.5C118 0.776142 118.224 1 118.5 1C118.776 1 119 0.776142 119 0.5C119 0.223858 118.776 0 118.5 0ZM0 8.5C0 8.22386 0.223858 8 0.5 8C0.776142 8 1 8.22386 1 8.5C1 8.77614 0.776142 9 0.5 9C0.223858 9 0 8.77614 0 8.5ZM17.5 8C17.2239 8 17 8.22386 17 8.5C17 8.77614 17.2239 9 17.5 9C17.7761 9 18 8.77614 18 8.5C18 8.22386 17.7761 8 17.5 8ZM38 8.5C38 8.22386 38.2239 8 38.5 8C38.7761 8 39 8.22386 39 8.5C39 8.77614 38.7761 9 38.5 9C38.2239 9 38 8.77614 38 8.5ZM66.5 8C66.2239 8 66 8.22386 66 8.5C66 8.77614 66.2239 9 66.5 9C66.7761 9 67 8.77614 67 8.5C67 8.22386 66.7761 8 66.5 8ZM8 8.5C8 8.22386 8.22386 8 8.5 8C8.77614 8 9 8.22386 9 8.5C9 8.77614 8.77614 9 8.5 9C8.22386 9 8 8.77614 8 8.5ZM27.5 8C27.2239 8 27 8.22386 27 8.5C27 8.77614 27.2239 9 27.5 9C27.7761 9 28 8.77614 28 8.5C28 8.22386 27.7761 8 27.5 8ZM52 8.5C52 8.22386 52.2239 8 52.5 8C52.7761 8 53 8.22386 53 8.5C53 8.77614 52.7761 9 52.5 9C52.2239 9 52 8.77614 52 8.5ZM80.5 8C80.2239 8 80 8.22386 80 8.5C80 8.77614 80.2239 9 80.5 9C80.7761 9 81 8.77614 81 8.5C81 8.22386 80.7761 8 80.5 8ZM91 8.5C91 8.22386 91.2239 8 91.5 8C91.7761 8 92 8.22386 92 8.5C92 8.77614 91.7761 9 91.5 9C91.2239 9 91 8.77614 91 8.5ZM101.5 8C101.224 8 101 8.22386 101 8.5C101 8.77614 101.224 9 101.5 9C101.776 9 102 8.77614 102 8.5C102 8.22386 101.776 8 101.5 8ZM110 8.5C110 8.22386 110.224 8 110.5 8C110.776 8 111 8.22386 111 8.5C111 8.77614 110.776 9 110.5 9C110.224 9 110 8.77614 110 8.5ZM118.5 8C118.224 8 118 8.22386 118 8.5C118 8.77614 118.224 9 118.5 9C118.776 9 119 8.77614 119 8.5C119 8.22386 118.776 8 118.5 8ZM0 17.5C0 17.2239 0.223858 17 0.5 17C0.776142 17 1 17.2239 1 17.5C1 17.7761 0.776142 18 0.5 18C0.223858 18 0 17.7761 0 17.5ZM17.5 16C16.6716 16 16 16.6716 16 17.5C16 18.3284 16.6716 19 17.5 19C18.3284 19 19 18.3284 19 17.5C19 16.6716 18.3284 16 17.5 16ZM37 17.5C37 16.6716 37.6716 16 38.5 16C39.3284 16 40 16.6716 40 17.5C40 18.3284 39.3284 19 38.5 19C37.6716 19 37 18.3284 37 17.5ZM66.5 16C65.6716 16 65 16.6716 65 17.5C65 18.3284 65.6716 19 66.5 19C67.3284 19 68 18.3284 68 17.5C68 16.6716 67.3284 16 66.5 16ZM8 17.5C8 17.2239 8.22386 17 8.5 17C8.77614 17 9 17.2239 9 17.5C9 17.7761 8.77614 18 8.5 18C8.22386 18 8 17.7761 8 17.5ZM27.5 16C26.6716 16 26 16.6716 26 17.5C26 18.3284 26.6716 19 27.5 19C28.3284 19 29 18.3284 29 17.5C29 16.6716 28.3284 16 27.5 16ZM51 17.5C51 16.6716 51.6716 16 52.5 16C53.3284 16 54 16.6716 54 17.5C54 18.3284 53.3284 19 52.5 19C51.6716 19 51 18.3284 51 17.5ZM80.5 16C79.6716 16 79 16.6716 79 17.5C79 18.3284 79.6716 19 80.5 19C81.3284 19 82 18.3284 82 17.5C82 16.6716 81.3284 16 80.5 16ZM90 17.5C90 16.6716 90.6716 16 91.5 16C92.3284 16 93 16.6716 93 17.5C93 18.3284 92.3284 19 91.5 19C90.6716 19 90 18.3284 90 17.5ZM101.5 16C100.672 16 100 16.6716 100 17.5C100 18.3284 100.672 19 101.5 19C102.328 19 103 18.3284 103 17.5C103 16.6716 102.328 16 101.5 16ZM110 17.5C110 17.2239 110.224 17 110.5 17C110.776 17 111 17.2239 111 17.5C111 17.7761 110.776 18 110.5 18C110.224 18 110 17.7761 110 17.5ZM118.5 17C118.224 17 118 17.2239 118 17.5C118 17.7761 118.224 18 118.5 18C118.776 18 119 17.7761 119 17.5C119 17.2239 118.776 17 118.5 17ZM0 27.5C0 27.2239 0.223858 27 0.5 27C0.776142 27 1 27.2239 1 27.5C1 27.7761 0.776142 28 0.5 28C0.223858 28 0 27.7761 0 27.5ZM17.5 26C16.6716 26 16 26.6716 16 27.5C16 28.3284 16.6716 29 17.5 29C18.3284 29 19 28.3284 19 27.5C19 26.6716 18.3284 26 17.5 26ZM37 27.5C37 26.6716 37.6716 26 38.5 26C39.3284 26 40 26.6716 40 27.5C40 28.3284 39.3284 29 38.5 29C37.6716 29 37 28.3284 37 27.5ZM66.5 26C65.6716 26 65 26.6716 65 27.5C65 28.3284 65.6716 29 66.5 29C67.3284 29 68 28.3284 68 27.5C68 26.6716 67.3284 26 66.5 26ZM8 27.5C8 27.2239 8.22386 27 8.5 27C8.77614 27 9 27.2239 9 27.5C9 27.7761 8.77614 28 8.5 28C8.22386 28 8 27.7761 8 27.5ZM27.5 26C26.6716 26 26 26.6716 26 27.5C26 28.3284 26.6716 29 27.5 29C28.3284 29 29 28.3284 29 27.5C29 26.6716 28.3284 26 27.5 26ZM51 27.5C51 26.6716 51.6716 26 52.5 26C53.3284 26 54 26.6716 54 27.5C54 28.3284 53.3284 29 52.5 29C51.6716 29 51 28.3284 51 27.5ZM80.5 26C79.6716 26 79 26.6716 79 27.5C79 28.3284 79.6716 29 80.5 29C81.3284 29 82 28.3284 82 27.5C82 26.6716 81.3284 26 80.5 26ZM90 27.5C90 26.6716 90.6716 26 91.5 26C92.3284 26 93 26.6716 93 27.5C93 28.3284 92.3284 29 91.5 29C90.6716 29 90 28.3284 90 27.5ZM101.5 26C100.672 26 100 26.6716 100 27.5C100 28.3284 100.672 29 101.5 29C102.328 29 103 28.3284 103 27.5C103 26.6716 102.328 26 101.5 26ZM110 27.5C110 27.2239 110.224 27 110.5 27C110.776 27 111 27.2239 111 27.5C111 27.7761 110.776 28 110.5 28C110.224 28 110 27.7761 110 27.5ZM118.5 27C118.224 27 118 27.2239 118 27.5C118 27.7761 118.224 28 118.5 28C118.776 28 119 27.7761 119 27.5C119 27.2239 118.776 27 118.5 27ZM0 37.5C0 37.2239 0.223858 37 0.5 37C0.776142 37 1 37.2239 1 37.5C1 37.7761 0.776142 38 0.5 38C0.223858 38 0 37.7761 0 37.5ZM17.5 36C16.6716 36 16 36.6716 16 37.5C16 38.3284 16.6716 39 17.5 39C18.3284 39 19 38.3284 19 37.5C19 36.6716 18.3284 36 17.5 36ZM36 37.5C36 36.1193 37.1193 35 38.5 35C39.8807 35 41 36.1193 41 37.5C41 38.8807 39.8807 40 38.5 40C37.1193 40 36 38.8807 36 37.5ZM66.5 35C65.1193 35 64 36.1193 64 37.5C64 38.8807 65.1193 40 66.5 40C67.8807 40 69 38.8807 69 37.5C69 36.1193 67.8807 35 66.5 35ZM8 37.5C8 37.2239 8.22386 37 8.5 37C8.77614 37 9 37.2239 9 37.5C9 37.7761 8.77614 38 8.5 38C8.22386 38 8 37.7761 8 37.5ZM27.5 36C26.6716 36 26 36.6716 26 37.5C26 38.3284 26.6716 39 27.5 39C28.3284 39 29 38.3284 29 37.5C29 36.6716 28.3284 36 27.5 36ZM50 37.5C50 36.1193 51.1193 35 52.5 35C53.8807 35 55 36.1193 55 37.5C55 38.8807 53.8807 40 52.5 40C51.1193 40 50 38.8807 50 37.5ZM80.5 35C79.1193 35 78 36.1193 78 37.5C78 38.8807 79.1193 40 80.5 40C81.8807 40 83 38.8807 83 37.5C83 36.1193 81.8807 35 80.5 35ZM90 37.5C90 36.6716 90.6716 36 91.5 36C92.3284 36 93 36.6716 93 37.5C93 38.3284 92.3284 39 91.5 39C90.6716 39 90 38.3284 90 37.5ZM101.5 36C100.672 36 100 36.6716 100 37.5C100 38.3284 100.672 39 101.5 39C102.328 39 103 38.3284 103 37.5C103 36.6716 102.328 36 101.5 36ZM110 37.5C110 37.2239 110.224 37 110.5 37C110.776 37 111 37.2239 111 37.5C111 37.7761 110.776 38 110.5 38C110.224 38 110 37.7761 110 37.5ZM118.5 37C118.224 37 118 37.2239 118 37.5C118 37.7761 118.224 38 118.5 38C118.776 38 119 37.7761 119 37.5C119 37.2239 118.776 37 118.5 37ZM0 50.5C0 50.2239 0.223858 50 0.5 50C0.776142 50 1 50.2239 1 50.5C1 50.7761 0.776142 51 0.5 51C0.223858 51 0 50.7761 0 50.5ZM17.5 49C16.6716 49 16 49.6716 16 50.5C16 51.3284 16.6716 52 17.5 52C18.3284 52 19 51.3284 19 50.5C19 49.6716 18.3284 49 17.5 49ZM36 50.5C36 49.1193 37.1193 48 38.5 48C39.8807 48 41 49.1193 41 50.5C41 51.8807 39.8807 53 38.5 53C37.1193 53 36 51.8807 36 50.5ZM66.5 46C64.0147 46 62 48.0147 62 50.5C62 52.9853 64.0147 55 66.5 55C68.9853 55 71 52.9853 71 50.5C71 48.0147 68.9853 46 66.5 46ZM8 50.5C8 50.2239 8.22386 50 8.5 50C8.77614 50 9 50.2239 9 50.5C9 50.7761 8.77614 51 8.5 51C8.22386 51 8 50.7761 8 50.5ZM27.5 49C26.6716 49 26 49.6716 26 50.5C26 51.3284 26.6716 52 27.5 52C28.3284 52 29 51.3284 29 50.5C29 49.6716 28.3284 49 27.5 49ZM48 50.5C48 48.0147 50.0147 46 52.5 46C54.9853 46 57 48.0147 57 50.5C57 52.9853 54.9853 55 52.5 55C50.0147 55 48 52.9853 48 50.5ZM80.5 48C79.1193 48 78 49.1193 78 50.5C78 51.8807 79.1193 53 80.5 53C81.8807 53 83 51.8807 83 50.5C83 49.1193 81.8807 48 80.5 48ZM90 50.5C90 49.6716 90.6716 49 91.5 49C92.3284 49 93 49.6716 93 50.5C93 51.3284 92.3284 52 91.5 52C90.6716 52 90 51.3284 90 50.5ZM101.5 49C100.672 49 100 49.6716 100 50.5C100 51.3284 100.672 52 101.5 52C102.328 52 103 51.3284 103 50.5C103 49.6716 102.328 49 101.5 49ZM110 50.5C110 50.2239 110.224 50 110.5 50C110.776 50 111 50.2239 111 50.5C111 50.7761 110.776 51 110.5 51C110.224 51 110 50.7761 110 50.5ZM118.5 50C118.224 50 118 50.2239 118 50.5C118 50.7761 118.224 51 118.5 51C118.776 51 119 50.7761 119 50.5C119 50.2239 118.776 50 118.5 50ZM0 64.5C0 64.2239 0.223858 64 0.5 64C0.776142 64 1 64.2239 1 64.5C1 64.7761 0.776142 65 0.5 65C0.223858 65 0 64.7761 0 64.5ZM17.5 63C16.6716 63 16 63.6716 16 64.5C16 65.3284 16.6716 66 17.5 66C18.3284 66 19 65.3284 19 64.5C19 63.6716 18.3284 63 17.5 63ZM36 64.5C36 63.1193 37.1193 62 38.5 62C39.8807 62 41 63.1193 41 64.5C41 65.8807 39.8807 67 38.5 67C37.1193 67 36 65.8807 36 64.5ZM66.5 60C64.0147 60 62 62.0147 62 64.5C62 66.9853 64.0147 69 66.5 69C68.9853 69 71 66.9853 71 64.5C71 62.0147 68.9853 60 66.5 60ZM8 64.5C8 64.2239 8.22386 64 8.5 64C8.77614 64 9 64.2239 9 64.5C9 64.7761 8.77614 65 8.5 65C8.22386 65 8 64.7761 8 64.5ZM27.5 63C26.6716 63 26 63.6716 26 64.5C26 65.3284 26.6716 66 27.5 66C28.3284 66 29 65.3284 29 64.5C29 63.6716 28.3284 63 27.5 63ZM48 64.5C48 62.0147 50.0147 60 52.5 60C54.9853 60 57 62.0147 57 64.5C57 66.9853 54.9853 69 52.5 69C50.0147 69 48 66.9853 48 64.5ZM80.5 62C79.1193 62 78 63.1193 78 64.5C78 65.8807 79.1193 67 80.5 67C81.8807 67 83 65.8807 83 64.5C83 63.1193 81.8807 62 80.5 62ZM90 64.5C90 63.6716 90.6716 63 91.5 63C92.3284 63 93 63.6716 93 64.5C93 65.3284 92.3284 66 91.5 66C90.6716 66 90 65.3284 90 64.5ZM101.5 63C100.672 63 100 63.6716 100 64.5C100 65.3284 100.672 66 101.5 66C102.328 66 103 65.3284 103 64.5C103 63.6716 102.328 63 101.5 63ZM110 64.5C110 64.2239 110.224 64 110.5 64C110.776 64 111 64.2239 111 64.5C111 64.7761 110.776 65 110.5 65C110.224 65 110 64.7761 110 64.5ZM118.5 64C118.224 64 118 64.2239 118 64.5C118 64.7761 118.224 65 118.5 65C118.776 65 119 64.7761 119 64.5C119 64.2239 118.776 64 118.5 64ZM0 78.5C0 78.2239 0.223858 78 0.5 78C0.776142 78 1 78.2239 1 78.5C1 78.7761 0.776142 79 0.5 79C0.223858 79 0 78.7761 0 78.5ZM17.5 77C16.6716 77 16 77.6716 16 78.5C16 79.3284 16.6716 80 17.5 80C18.3284 80 19 79.3284 19 78.5C19 77.6716 18.3284 77 17.5 77ZM36 78.5C36 77.1193 37.1193 76 38.5 76C39.8807 76 41 77.1193 41 78.5C41 79.8807 39.8807 81 38.5 81C37.1193 81 36 79.8807 36 78.5ZM66.5 76C65.1193 76 64 77.1193 64 78.5C64 79.8807 65.1193 81 66.5 81C67.8807 81 69 79.8807 69 78.5C69 77.1193 67.8807 76 66.5 76ZM8 78.5C8 78.2239 8.22386 78 8.5 78C8.77614 78 9 78.2239 9 78.5C9 78.7761 8.77614 79 8.5 79C8.22386 79 8 78.7761 8 78.5ZM27.5 77C26.6716 77 26 77.6716 26 78.5C26 79.3284 26.6716 80 27.5 80C28.3284 80 29 79.3284 29 78.5C29 77.6716 28.3284 77 27.5 77ZM50 78.5C50 77.1193 51.1193 76 52.5 76C53.8807 76 55 77.1193 55 78.5C55 79.8807 53.8807 81 52.5 81C51.1193 81 50 79.8807 50 78.5ZM80.5 76C79.1193 76 78 77.1193 78 78.5C78 79.8807 79.1193 81 80.5 81C81.8807 81 83 79.8807 83 78.5C83 77.1193 81.8807 76 80.5 76ZM90 78.5C90 77.6716 90.6716 77 91.5 77C92.3284 77 93 77.6716 93 78.5C93 79.3284 92.3284 80 91.5 80C90.6716 80 90 79.3284 90 78.5ZM101.5 77C100.672 77 100 77.6716 100 78.5C100 79.3284 100.672 80 101.5 80C102.328 80 103 79.3284 103 78.5C103 77.6716 102.328 77 101.5 77ZM110 78.5C110 78.2239 110.224 78 110.5 78C110.776 78 111 78.2239 111 78.5C111 78.7761 110.776 79 110.5 79C110.224 79 110 78.7761 110 78.5ZM118.5 78C118.224 78 118 78.2239 118 78.5C118 78.7761 118.224 79 118.5 79C118.776 79 119 78.7761 119 78.5C119 78.2239 118.776 78 118.5 78ZM0 90.5C0 90.2239 0.223858 90 0.5 90C0.776142 90 1 90.2239 1 90.5C1 90.7761 0.776142 91 0.5 91C0.223858 91 0 90.7761 0 90.5ZM17.5 89C16.6716 89 16 89.6716 16 90.5C16 91.3284 16.6716 92 17.5 92C18.3284 92 19 91.3284 19 90.5C19 89.6716 18.3284 89 17.5 89ZM37 90.5C37 89.6716 37.6716 89 38.5 89C39.3284 89 40 89.6716 40 90.5C40 91.3284 39.3284 92 38.5 92C37.6716 92 37 91.3284 37 90.5ZM66.5 89C65.6716 89 65 89.6716 65 90.5C65 91.3284 65.6716 92 66.5 92C67.3284 92 68 91.3284 68 90.5C68 89.6716 67.3284 89 66.5 89ZM8 90.5C8 90.2239 8.22386 90 8.5 90C8.77614 90 9 90.2239 9 90.5C9 90.7761 8.77614 91 8.5 91C8.22386 91 8 90.7761 8 90.5ZM27.5 89C26.6716 89 26 89.6716 26 90.5C26 91.3284 26.6716 92 27.5 92C28.3284 92 29 91.3284 29 90.5C29 89.6716 28.3284 89 27.5 89ZM51 90.5C51 89.6716 51.6716 89 52.5 89C53.3284 89 54 89.6716 54 90.5C54 91.3284 53.3284 92 52.5 92C51.6716 92 51 91.3284 51 90.5ZM80.5 89C79.6716 89 79 89.6716 79 90.5C79 91.3284 79.6716 92 80.5 92C81.3284 92 82 91.3284 82 90.5C82 89.6716 81.3284 89 80.5 89ZM90 90.5C90 89.6716 90.6716 89 91.5 89C92.3284 89 93 89.6716 93 90.5C93 91.3284 92.3284 92 91.5 92C90.6716 92 90 91.3284 90 90.5ZM101.5 89C100.672 89 100 89.6716 100 90.5C100 91.3284 100.672 92 101.5 92C102.328 92 103 91.3284 103 90.5C103 89.6716 102.328 89 101.5 89ZM110 90.5C110 90.2239 110.224 90 110.5 90C110.776 90 111 90.2239 111 90.5C111 90.7761 110.776 91 110.5 91C110.224 91 110 90.7761 110 90.5ZM118.5 90C118.224 90 118 90.2239 118 90.5C118 90.7761 118.224 91 118.5 91C118.776 91 119 90.7761 119 90.5C119 90.2239 118.776 90 118.5 90ZM0 100.5C0 100.224 0.223858 100 0.5 100C0.776142 100 1 100.224 1 100.5C1 100.776 0.776142 101 0.5 101C0.223858 101 0 100.776 0 100.5ZM17.5 99C16.6716 99 16 99.6716 16 100.5C16 101.328 16.6716 102 17.5 102C18.3284 102 19 101.328 19 100.5C19 99.6716 18.3284 99 17.5 99ZM37 100.5C37 99.6716 37.6716 99 38.5 99C39.3284 99 40 99.6716 40 100.5C40 101.328 39.3284 102 38.5 102C37.6716 102 37 101.328 37 100.5ZM66.5 99C65.6716 99 65 99.6716 65 100.5C65 101.328 65.6716 102 66.5 102C67.3284 102 68 101.328 68 100.5C68 99.6716 67.3284 99 66.5 99ZM8 100.5C8 100.224 8.22386 100 8.5 100C8.77614 100 9 100.224 9 100.5C9 100.776 8.77614 101 8.5 101C8.22386 101 8 100.776 8 100.5ZM27.5 99C26.6716 99 26 99.6716 26 100.5C26 101.328 26.6716 102 27.5 102C28.3284 102 29 101.328 29 100.5C29 99.6716 28.3284 99 27.5 99ZM51 100.5C51 99.6716 51.6716 99 52.5 99C53.3284 99 54 99.6716 54 100.5C54 101.328 53.3284 102 52.5 102C51.6716 102 51 101.328 51 100.5ZM80.5 99C79.6716 99 79 99.6716 79 100.5C79 101.328 79.6716 102 80.5 102C81.3284 102 82 101.328 82 100.5C82 99.6716 81.3284 99 80.5 99ZM90 100.5C90 99.6716 90.6716 99 91.5 99C92.3284 99 93 99.6716 93 100.5C93 101.328 92.3284 102 91.5 102C90.6716 102 90 101.328 90 100.5ZM101.5 99C100.672 99 100 99.6716 100 100.5C100 101.328 100.672 102 101.5 102C102.328 102 103 101.328 103 100.5C103 99.6716 102.328 99 101.5 99ZM110 100.5C110 100.224 110.224 100 110.5 100C110.776 100 111 100.224 111 100.5C111 100.776 110.776 101 110.5 101C110.224 101 110 100.776 110 100.5ZM118.5 100C118.224 100 118 100.224 118 100.5C118 100.776 118.224 101 118.5 101C118.776 101 119 100.776 119 100.5C119 100.224 118.776 100 118.5 100ZM0 109.5C0 109.224 0.223858 109 0.5 109C0.776142 109 1 109.224 1 109.5C1 109.776 0.776142 110 0.5 110C0.223858 110 0 109.776 0 109.5ZM17.5 109C17.2239 109 17 109.224 17 109.5C17 109.776 17.2239 110 17.5 110C17.7761 110 18 109.776 18 109.5C18 109.224 17.7761 109 17.5 109ZM38 109.5C38 109.224 38.2239 109 38.5 109C38.7761 109 39 109.224 39 109.5C39 109.776 38.7761 110 38.5 110C38.2239 110 38 109.776 38 109.5ZM66.5 109C66.2239 109 66 109.224 66 109.5C66 109.776 66.2239 110 66.5 110C66.7761 110 67 109.776 67 109.5C67 109.224 66.7761 109 66.5 109ZM8 109.5C8 109.224 8.22386 109 8.5 109C8.77614 109 9 109.224 9 109.5C9 109.776 8.77614 110 8.5 110C8.22386 110 8 109.776 8 109.5ZM27.5 109C27.2239 109 27 109.224 27 109.5C27 109.776 27.2239 110 27.5 110C27.7761 110 28 109.776 28 109.5C28 109.224 27.7761 109 27.5 109ZM52 109.5C52 109.224 52.2239 109 52.5 109C52.7761 109 53 109.224 53 109.5C53 109.776 52.7761 110 52.5 110C52.2239 110 52 109.776 52 109.5ZM80.5 109C80.2239 109 80 109.224 80 109.5C80 109.776 80.2239 110 80.5 110C80.7761 110 81 109.776 81 109.5C81 109.224 80.7761 109 80.5 109ZM91 109.5C91 109.224 91.2239 109 91.5 109C91.7761 109 92 109.224 92 109.5C92 109.776 91.7761 110 91.5 110C91.2239 110 91 109.776 91 109.5ZM101.5 109C101.224 109 101 109.224 101 109.5C101 109.776 101.224 110 101.5 110C101.776 110 102 109.776 102 109.5C102 109.224 101.776 109 101.5 109ZM110 109.5C110 109.224 110.224 109 110.5 109C110.776 109 111 109.224 111 109.5C111 109.776 110.776 110 110.5 110C110.224 110 110 109.776 110 109.5ZM118.5 109C118.224 109 118 109.224 118 109.5C118 109.776 118.224 110 118.5 110C118.776 110 119 109.776 119 109.5C119 109.224 118.776 109 118.5 109ZM0 117.5C0 117.224 0.223858 117 0.5 117C0.776142 117 1 117.224 1 117.5C1 117.776 0.776142 118 0.5 118C0.223858 118 0 117.776 0 117.5ZM17.5 117C17.2239 117 17 117.224 17 117.5C17 117.776 17.2239 118 17.5 118C17.7761 118 18 117.776 18 117.5C18 117.224 17.7761 117 17.5 117ZM38 117.5C38 117.224 38.2239 117 38.5 117C38.7761 117 39 117.224 39 117.5C39 117.776 38.7761 118 38.5 118C38.2239 118 38 117.776 38 117.5ZM66.5 117C66.2239 117 66 117.224 66 117.5C66 117.776 66.2239 118 66.5 118C66.7761 118 67 117.776 67 117.5C67 117.224 66.7761 117 66.5 117ZM8 117.5C8 117.224 8.22386 117 8.5 117C8.77614 117 9 117.224 9 117.5C9 117.776 8.77614 118 8.5 118C8.22386 118 8 117.776 8 117.5ZM27.5 117C27.2239 117 27 117.224 27 117.5C27 117.776 27.2239 118 27.5 118C27.7761 118 28 117.776 28 117.5C28 117.224 27.7761 117 27.5 117ZM52 117.5C52 117.224 52.2239 117 52.5 117C52.7761 117 53 117.224 53 117.5C53 117.776 52.7761 118 52.5 118C52.2239 118 52 117.776 52 117.5ZM80.5 117C80.2239 117 80 117.224 80 117.5C80 117.776 80.2239 118 80.5 118C80.7761 118 81 117.776 81 117.5C81 117.224 80.7761 117 80.5 117ZM91 117.5C91 117.224 91.2239 117 91.5 117C91.7761 117 92 117.224 92 117.5C92 117.776 91.7761 118 91.5 118C91.2239 118 91 117.776 91 117.5ZM101.5 117C101.224 117 101 117.224 101 117.5C101 117.776 101.224 118 101.5 118C101.776 118 102 117.776 102 117.5C102 117.224 101.776 117 101.5 117ZM110 117.5C110 117.224 110.224 117 110.5 117C110.776 117 111 117.224 111 117.5C111 117.776 110.776 118 110.5 118C110.224 118 110 117.776 110 117.5ZM118.5 117C118.224 117 118 117.224 118 117.5C118 117.776 118.224 118 118.5 118C118.776 118 119 117.776 119 117.5C119 117.224 118.776 117 118.5 117Z" fill="#01A473" fill-opacity="0.5"/>
</svg>
