<svg width="611" height="570" viewBox="0 0 611 570" fill="none" xmlns="http://www.w3.org/2000/svg">
<path d="M1 123.979C2.2 109.179 2 94.1793 5 79.8793C10.7 52.3793 29.2 35.1793 55.2 26.7793C92.3 14.7793 130.6 8.07926 169.5 4.37926C172.8 4.07926 176.3 4.47926 179.6 3.87926C235.7 -5.92074 285.6 10.0793 332.4 39.9793C348.2 50.0793 364.6 59.3793 381 68.4793C413.7 86.6793 449 87.2793 484.9 83.4793C517.5 79.9793 550.1 76.8793 582.8 81.2793C599.6 83.5793 612.8 98.7793 610 115.279C598 186.779 578.6 255.679 532.9 313.979C515.5 336.079 496.6 357.079 477.8 377.979C456.5 401.679 440.6 429.079 426.1 456.979C397.2 512.779 352.1 548.379 292.7 565.579C278.3 569.779 262.1 569.379 246.9 568.479C232.5 567.579 222.9 556.679 216.2 544.679C210.1 533.579 204.4 521.779 201.1 509.579C192.7 479.079 176.2 454.879 149.6 437.679C92.1 400.379 61 343.679 36.3 282.379C21.4 245.479 11.1 207.279 4.9 167.979C2.7 153.479 2.3 138.679 1 123.979ZM200 28.4793C162.7 27.7793 128.2 36.1793 94.5 48.3793C62.8 59.9793 39.9 80.6793 34.4 115.279C31.5 133.679 29.1 152.979 31.6 171.279C38.6 222.279 53.9 271.079 82.8 314.379C109.6 354.479 142.9 386.579 192.5 397.279C208.9 400.779 224.8 406.579 240.8 411.779C264.4 419.379 283.6 433.779 301.2 450.779C318.1 467.079 326.1 468.279 345.7 456.079C355.9 449.679 365.7 442.279 374.1 433.679C411.8 395.379 449 356.579 486.2 317.779C495.9 307.579 506 297.479 513.7 285.779C533.5 255.679 548.8 223.779 547.3 186.279C546.1 155.779 525.3 134.579 494.8 133.779C478 133.379 461.1 134.279 444.4 133.479C415.9 132.179 388.2 126.979 364.5 109.679C349.9 98.9793 335.7 87.5793 322 75.7793C286.4 45.2793 246.5 26.7793 200 28.4793Z" stroke="white" stroke-opacity="0.3" stroke-miterlimit="10"/>
<path d="M200 28.4793C246.6 26.7793 286.4 45.2793 321.9 75.6793C335.7 87.4793 349.8 98.8793 364.4 109.579C388.1 126.879 415.8 132.079 444.3 133.379C461.1 134.179 477.9 133.179 494.7 133.679C525.2 134.479 546 155.679 547.2 186.179C548.7 223.679 533.3 255.579 513.6 285.679C505.9 297.379 495.8 307.479 486.1 317.679C448.9 356.479 411.7 395.279 374 433.579C365.6 442.079 355.8 449.579 345.6 455.979C326 468.179 318 466.979 301.1 450.679C283.5 433.679 264.2 419.279 240.7 411.679C224.7 406.479 208.8 400.779 192.4 397.179C142.9 386.479 109.6 354.479 82.8 314.279C53.9 270.979 38.6 222.179 31.6 171.179C29.1 152.979 31.5 133.579 34.4 115.179C39.9 80.6793 62.9 59.9793 94.5 48.3793C128.1 36.0793 162.7 27.7793 200 28.4793ZM270.8 351.579C290.3 351.579 309.9 352.779 329.3 351.179C345.1 349.879 362 347.979 376.1 341.479C397.8 331.379 418.3 318.079 438 304.179C457.6 290.279 470.7 270.379 479.5 248.179C489.9 221.979 478.5 199.279 451.3 191.579C442.3 188.979 432.9 187.679 423.6 186.079C396.6 181.579 371.5 172.479 350.9 153.679C330.6 135.079 310.6 116.179 290.7 97.1793C272.3 79.5793 250.7 67.7793 226.1 61.5793C187 51.5793 149.9 60.6793 114.3 75.9793C91.2 85.8793 75.3 103.679 67.4 128.379C60.6 149.579 61.5 170.879 64.2 192.179C68.3 224.879 82.1 254.379 98.9 281.879C126.2 326.679 165.6 352.879 220.2 351.579C237.2 351.279 254 351.579 270.8 351.579Z" stroke="white" stroke-opacity="0.3" stroke-miterlimit="10"/>
<path d="M270.8 351.579C254 351.579 237.2 351.279 220.3 351.679C165.7 352.879 126.4 326.779 99 281.979C82.2 254.479 68.3 224.979 64.3 192.279C61.7 170.879 60.7 149.579 67.5 128.479C75.5 103.579 91.4 85.7793 114.5 75.8793C150.1 60.5793 187.1 51.4793 226.3 61.4793C250.9 67.7793 272.4 79.4793 290.9 97.0793C310.8 116.079 330.8 134.979 351.1 153.579C371.6 172.379 396.7 181.379 423.8 185.979C433.1 187.579 442.4 188.879 451.5 191.479C478.7 199.179 490.1 221.879 479.7 248.079C470.8 270.279 457.8 290.279 438.2 304.079C418.5 317.979 398 331.279 376.3 341.379C362.2 347.979 345.4 349.779 329.5 351.079C309.9 352.779 290.3 351.579 270.8 351.579ZM186.3 93.1793C186.1 93.1793 183.4 93.1793 180.7 93.1793C139.2 93.5793 108.1 118.879 97.7 158.779C90.9 184.879 98.9 208.479 108.5 231.079C125.6 271.279 153.6 299.679 199.2 308.479C219.1 312.379 237.9 309.779 257 306.779C282.9 302.779 308.5 297.079 331.5 283.679C353 271.179 359.3 251.179 348.4 228.679C345.5 222.679 341.9 216.879 338 211.479C315.8 181.179 293.9 150.779 266.4 124.779C244.3 103.879 219.5 91.7793 186.3 93.1793Z" stroke="white" stroke-opacity="0.3" stroke-miterlimit="10"/>
<path d="M186.3 93.1793C219.5 91.7793 244.2 103.879 266.4 124.779C293.9 150.879 315.8 181.279 338 211.479C342 216.879 345.5 222.679 348.4 228.679C359.3 251.179 353 271.079 331.5 283.679C308.4 297.079 282.9 302.879 257 306.779C238 309.679 219.2 312.279 199.2 308.479C153.6 299.679 125.7 271.279 108.5 231.079C98.9 208.479 90.8 184.879 97.7 158.779C108.2 118.879 139.2 93.5793 180.7 93.1793C183.4 93.0793 186.1 93.1793 186.3 93.1793ZM187.9 133.479C152.4 133.479 130 162.479 137.5 199.279C142 221.079 153.2 238.279 170.6 250.579C199.4 270.979 227.7 271.279 257.5 253.679C272.7 244.679 279.9 224.979 273.5 207.979C267.8 193.079 260.9 178.079 251.6 165.279C236.8 144.979 216.5 132.379 187.9 133.479Z" stroke="white" stroke-opacity="0.3" stroke-miterlimit="10"/>
<path d="M196.568 165.514C211.499 164.943 222.097 171.479 229.824 182.008C234.679 188.647 238.282 196.427 241.258 204.155C244.651 212.973 240.84 223.191 232.904 227.859C217.346 236.987 202.572 236.884 187.536 226.251C178.504 219.871 172.604 211.002 170.255 199.643C166.339 180.607 178.034 165.514 196.568 165.514Z" stroke="white" stroke-opacity="0.3" stroke-miterlimit="10"/>
</svg>
