<svg width="322" height="374" viewBox="0 0 322 374" fill="none" xmlns="http://www.w3.org/2000/svg">
<path d="M-78 81.5335C-77.2143 71.8416 -77.3452 62.0188 -75.3809 52.6544C-71.6488 34.6459 -59.5355 23.3824 -42.5116 17.8817C-18.2197 10.0234 6.85792 5.63588 32.3284 3.21292C34.4891 3.01647 36.7808 3.27841 38.9415 2.8855C75.674 -3.53207 108.347 6.94559 138.99 26.5257C149.335 33.1397 160.074 39.2299 170.812 45.1891C192.223 57.1074 215.336 57.5003 238.842 55.0119C260.188 52.7199 281.533 50.6898 302.944 53.5712C313.944 55.0774 322.587 65.0311 320.754 75.8362C312.896 122.658 300.194 167.778 270.271 205.956C258.878 220.428 246.503 234.18 234.193 247.866C220.247 263.386 209.836 281.329 200.342 299.6C181.419 336.141 151.889 359.453 112.996 370.717C103.567 373.467 92.9599 373.205 83.0074 372.616C73.5788 372.027 67.293 364.889 62.906 357.031C58.912 349.762 55.1798 342.034 53.0191 334.045C47.519 314.072 36.7153 298.225 19.2985 286.961C-18.3506 262.535 -38.7139 225.405 -54.8867 185.262C-64.6427 161.098 -71.3868 136.083 -75.4464 110.347C-76.8869 100.852 -77.1488 91.1598 -78 81.5335ZM52.2988 18.9949C27.876 18.5365 5.28647 24.0373 -16.7792 32.0265C-37.5353 39.6228 -52.5295 53.1783 -56.1308 75.8362C-58.0296 87.8855 -59.601 100.524 -57.9641 112.508C-53.3807 145.906 -43.3628 177.862 -24.44 206.218C-6.89221 232.477 14.9116 253.498 47.388 260.505C58.1262 262.797 68.5371 266.595 79.0133 270C94.4659 274.977 107.037 284.407 118.561 295.54C129.627 306.214 134.865 307 147.698 299.01C154.377 294.819 160.794 289.973 166.294 284.342C190.979 259.261 215.336 233.852 239.693 208.444C246.045 201.765 252.658 195.151 257.699 187.489C270.664 167.778 280.682 146.888 279.7 122.331C278.914 102.358 265.295 88.4749 245.324 87.951C234.324 87.6891 223.259 88.2785 212.324 87.7546C193.663 86.9033 175.526 83.498 160.008 72.169C150.449 65.1621 141.151 57.6968 132.18 49.9695C108.871 29.9965 82.7455 17.8817 52.2988 18.9949Z" stroke="white" stroke-opacity="0.3" stroke-miterlimit="10"/>
<path d="M52.8333 19.0706C83.314 17.9588 109.347 30.0577 132.567 49.939C141.594 57.6561 150.816 65.1117 160.366 72.1094C175.868 83.4235 193.986 86.8242 212.628 87.6744C223.617 88.1976 234.605 87.5436 245.594 87.8706C265.544 88.3938 279.149 102.258 279.934 122.205C280.915 146.73 270.842 167.592 257.956 187.278C252.92 194.929 246.314 201.535 239.969 208.205C215.637 233.58 191.305 258.955 166.645 284.003C161.151 289.562 154.741 294.467 148.069 298.652C135.249 306.631 130.016 305.846 118.962 295.186C107.45 284.068 94.826 274.651 79.4549 269.681C68.9894 266.28 58.5893 262.552 47.8622 260.198C15.4847 253.2 -6.29654 232.272 -23.8262 205.982C-42.7294 177.664 -52.737 145.749 -57.3157 112.395C-58.9509 100.493 -57.3811 87.8052 -55.4842 75.7717C-51.8867 53.209 -36.8426 39.6714 -16.1733 32.085C5.80415 24.0409 28.4357 18.6128 52.8333 19.0706ZM99.143 230.376C111.898 230.376 124.718 231.16 137.407 230.114C147.742 229.264 158.796 228.021 168.019 223.77C182.213 217.165 195.622 208.467 208.507 199.376C221.327 190.286 229.896 177.271 235.652 162.753C242.454 145.618 234.998 130.773 217.207 125.737C211.32 124.036 205.171 123.186 199.088 122.14C181.428 119.197 165.01 113.246 151.536 100.95C138.258 88.7862 125.176 76.4257 112.159 63.9999C100.124 52.4896 85.9958 44.7725 69.9051 40.7177C44.3301 34.1778 20.0634 40.1291 -3.22231 50.1352C-18.3318 56.6098 -28.7319 68.2508 -33.8992 84.4044C-38.347 98.2691 -37.7583 112.199 -35.9923 126.129C-33.3105 147.515 -24.2841 166.808 -13.2953 184.792C4.56138 214.091 30.3326 231.226 66.046 230.376C77.1655 230.179 88.1543 230.376 99.143 230.376Z" stroke="white" stroke-opacity="0.3" stroke-miterlimit="10"/>
<path d="M98.6133 230.731C87.6043 230.731 76.5952 230.534 65.5207 230.796C29.7413 231.582 3.98805 214.49 -13.9672 185.151C-24.9762 167.141 -34.0849 147.822 -36.7061 126.407C-38.4098 112.392 -39.0651 98.4433 -34.6091 84.6252C-29.3667 68.3185 -18.9474 56.6615 -3.81001 50.1781C19.5186 40.1583 43.7647 34.1988 69.4525 40.7477C85.5728 44.8735 99.6618 52.5357 111.785 64.0617C124.825 76.5046 137.931 88.882 151.234 101.063C164.668 113.375 181.116 119.269 198.874 122.281C204.968 123.329 211.063 124.18 217.026 125.883C234.85 130.926 242.321 145.792 235.505 162.95C229.673 177.488 221.154 190.586 208.31 199.624C195.401 208.726 181.967 217.436 167.747 224.051C158.508 228.373 147.499 229.552 137.079 230.403C124.236 231.517 111.392 230.731 98.6133 230.731ZM43.2405 61.5077C43.1094 61.5077 41.3401 61.5077 39.5708 61.5077C12.3759 61.7696 -8.00393 78.3383 -14.819 104.468C-19.2751 121.561 -14.0327 137.016 -7.74181 151.817C3.46381 178.143 21.8122 196.742 51.6939 202.505C64.7343 205.059 77.0539 203.356 89.5702 201.392C106.542 198.772 123.318 195.039 138.39 186.264C152.479 178.078 156.607 164.98 149.465 150.245C147.564 146.316 145.205 142.517 142.649 138.981C128.102 119.138 113.751 99.2292 95.73 82.2021C81.2479 68.515 64.9964 60.5908 43.2405 61.5077Z" stroke="white" stroke-opacity="0.3" stroke-miterlimit="10"/>
<path d="M43.6037 61.0721C65.307 60.1508 81.4537 68.1132 95.9661 81.8664C113.943 99.0414 128.26 119.046 142.772 138.919C145.387 142.472 147.675 146.289 149.571 150.237C156.696 165.043 152.578 178.139 138.523 186.43C123.422 195.248 106.752 199.064 89.8212 201.631C77.4007 203.539 65.1109 205.25 52.0366 202.749C22.2273 196.959 3.98876 178.27 -7.2551 151.817C-13.5307 136.945 -18.8258 121.415 -14.3152 104.24C-7.45121 77.9839 12.8139 61.3353 39.9429 61.0721C41.708 61.0063 43.473 61.0721 43.6037 61.0721ZM44.6497 87.5914C21.4429 87.5914 6.79972 106.675 11.7026 130.891C14.6443 145.236 21.9659 156.555 33.3405 164.649C52.1674 178.073 70.6674 178.27 90.1481 166.689C100.085 160.766 104.791 147.803 100.607 136.616C96.8813 126.811 92.3707 116.94 86.2912 108.517C76.6162 95.1589 63.3459 86.8675 44.6497 87.5914Z" stroke="white" stroke-opacity="0.3" stroke-miterlimit="10"/>
<path d="M50.4271 109.023C60.0405 108.65 66.864 112.913 71.8388 119.779C74.9648 124.109 77.2841 129.183 79.2001 134.223C81.385 139.974 78.9312 146.638 73.822 149.682C63.8052 155.636 54.2927 155.568 44.612 148.634C38.7969 144.473 34.9986 138.689 33.486 131.281C30.965 118.866 38.4944 109.023 50.4271 109.023Z" stroke="white" stroke-opacity="0.3" stroke-miterlimit="10"/>
</svg>
