<svg width="255" height="570" viewBox="0 0 255 570" fill="none" xmlns="http://www.w3.org/2000/svg">
<path d="M610 446.021C608.8 460.821 609 475.821 606 490.121C600.3 517.621 581.8 534.821 555.8 543.221C518.7 555.221 480.4 561.921 441.5 565.621C438.2 565.921 434.7 565.521 431.4 566.121C375.3 575.921 325.4 559.921 278.6 530.021C262.8 519.921 246.4 510.621 230 501.521C197.3 483.321 162 482.721 126.1 486.521C93.5 490.021 60.9 493.121 28.2 488.721C11.4 486.421 -1.79999 471.221 1.00001 454.721C13 383.221 32.4 314.321 78.1 256.021C95.5 233.921 114.4 212.921 133.2 192.021C154.5 168.321 170.4 140.921 184.9 113.021C213.8 57.2207 258.9 21.6207 318.3 4.42075C332.7 0.220752 348.9 0.620729 364.1 1.52073C378.5 2.42073 388.1 13.3207 394.8 25.3207C400.9 36.4207 406.6 48.2207 409.9 60.4207C418.3 90.9207 434.8 115.121 461.4 132.321C518.9 169.621 550 226.321 574.7 287.621C589.6 324.521 599.9 362.721 606.1 402.021C608.3 416.521 608.7 431.321 610 446.021ZM411 541.521C448.3 542.221 482.8 533.821 516.5 521.621C548.2 510.021 571.1 489.321 576.6 454.721C579.5 436.321 581.9 417.021 579.4 398.721C572.4 347.721 557.1 298.921 528.2 255.621C501.4 215.521 468.1 183.421 418.5 172.721C402.1 169.221 386.2 163.421 370.2 158.221C346.6 150.621 327.4 136.221 309.8 119.221C292.9 102.921 284.9 101.721 265.3 113.921C255.1 120.321 245.3 127.721 236.9 136.321C199.2 174.621 162 213.421 124.8 252.221C115.1 262.421 105 272.521 97.3 284.221C77.5 314.321 62.2 346.221 63.7 383.721C64.9 414.221 85.7 435.421 116.2 436.221C133 436.621 149.9 435.721 166.6 436.521C195.1 437.821 222.8 443.021 246.5 460.321C261.1 471.021 275.3 482.421 289 494.221C324.6 524.721 364.5 543.221 411 541.521Z" stroke="white" stroke-opacity="0.3" stroke-miterlimit="10"/>
<path d="M411 541.521C364.4 543.221 324.6 524.721 289.1 494.321C275.3 482.521 261.2 471.121 246.6 460.421C222.9 443.121 195.2 437.921 166.7 436.621C149.9 435.821 133.1 436.821 116.3 436.321C85.8001 435.521 65.0001 414.321 63.8001 383.821C62.3001 346.321 77.7001 314.421 97.4001 284.321C105.1 272.621 115.2 262.521 124.9 252.321C162.1 213.521 199.3 174.721 237 136.421C245.4 127.921 255.2 120.421 265.4 114.021C285 101.821 293 103.021 309.9 119.321C327.5 136.321 346.8 150.721 370.3 158.321C386.3 163.521 402.2 169.221 418.6 172.821C468.1 183.521 501.4 215.521 528.2 255.721C557.1 299.021 572.4 347.821 579.4 398.821C581.9 417.021 579.5 436.421 576.6 454.821C571.1 489.321 548.1 510.021 516.5 521.621C482.9 533.921 448.3 542.221 411 541.521ZM340.2 218.421C320.7 218.421 301.1 217.221 281.7 218.821C265.9 220.121 249 222.021 234.9 228.521C213.2 238.621 192.7 251.921 173 265.821C153.4 279.721 140.3 299.621 131.5 321.821C121.1 348.021 132.5 370.721 159.7 378.421C168.7 381.021 178.1 382.321 187.4 383.921C214.4 388.421 239.5 397.521 260.1 416.321C280.4 434.921 300.4 453.821 320.3 472.821C338.7 490.421 360.3 502.221 384.9 508.421C424 518.421 461.1 509.321 496.7 494.021C519.8 484.121 535.7 466.321 543.6 441.621C550.4 420.421 549.5 399.121 546.8 377.821C542.7 345.121 528.9 315.621 512.1 288.121C484.8 243.321 445.4 217.121 390.8 218.421C373.8 218.721 357 218.421 340.2 218.421Z" stroke="white" stroke-opacity="0.3" stroke-miterlimit="10"/>
<path d="M340.2 218.421C357 218.421 373.8 218.721 390.7 218.321C445.3 217.121 484.6 243.221 512 288.021C528.8 315.521 542.7 345.021 546.7 377.721C549.3 399.121 550.3 420.421 543.5 441.521C535.5 466.421 519.6 484.221 496.5 494.121C460.9 509.421 423.9 518.521 384.7 508.521C360.1 502.221 338.6 490.521 320.1 472.921C300.2 453.921 280.2 435.021 259.9 416.421C239.4 397.621 214.3 388.621 187.2 384.021C177.9 382.421 168.6 381.121 159.5 378.521C132.3 370.821 120.9 348.121 131.3 321.921C140.2 299.721 153.2 279.721 172.8 265.921C192.5 252.021 213 238.721 234.7 228.621C248.8 222.021 265.6 220.221 281.5 218.921C301.1 217.221 320.7 218.421 340.2 218.421ZM424.7 476.821C424.9 476.821 427.6 476.821 430.3 476.821C471.8 476.421 502.9 451.121 513.3 411.221C520.1 385.121 512.1 361.521 502.5 338.921C485.4 298.721 457.4 270.321 411.8 261.521C391.9 257.621 373.1 260.221 354 263.221C328.1 267.221 302.5 272.921 279.5 286.321C258 298.821 251.7 318.821 262.6 341.321C265.5 347.321 269.1 353.121 273 358.521C295.2 388.821 317.1 419.221 344.6 445.221C366.7 466.121 391.5 478.221 424.7 476.821Z" stroke="white" stroke-opacity="0.3" stroke-miterlimit="10"/>
</svg>
