<svg width="119" height="118" viewBox="0 0 119 118" fill="none" xmlns="http://www.w3.org/2000/svg">
<rect width="1" height="1" rx="0.5" fill="#C4C4C4"/>
<rect x="17" width="1" height="1" rx="0.5" fill="#C4C4C4"/>
<rect x="38" width="1" height="1" rx="0.5" fill="#C4C4C4"/>
<rect x="66" width="1" height="1" rx="0.5" fill="#C4C4C4"/>
<rect x="8" width="1" height="1" rx="0.5" fill="#C4C4C4"/>
<rect x="27" width="1" height="1" rx="0.5" fill="#C4C4C4"/>
<rect x="52" width="1" height="1" rx="0.5" fill="#C4C4C4"/>
<rect x="80" width="1" height="1" rx="0.5" fill="#C4C4C4"/>
<rect x="91" width="1" height="1" rx="0.5" fill="#C4C4C4"/>
<rect x="101" width="1" height="1" rx="0.5" fill="#C4C4C4"/>
<rect x="110" width="1" height="1" rx="0.5" fill="#C4C4C4"/>
<rect x="118" width="1" height="1" rx="0.5" fill="#C4C4C4"/>
<rect y="8" width="1" height="1" rx="0.5" fill="#C4C4C4"/>
<rect x="17" y="8" width="1" height="1" rx="0.5" fill="#C4C4C4"/>
<rect x="38" y="8" width="1" height="1" rx="0.5" fill="#C4C4C4"/>
<rect x="66" y="8" width="1" height="1" rx="0.5" fill="#C4C4C4"/>
<rect x="8" y="8" width="1" height="1" rx="0.5" fill="#C4C4C4"/>
<rect x="27" y="8" width="1" height="1" rx="0.5" fill="#C4C4C4"/>
<rect x="52" y="8" width="1" height="1" rx="0.5" fill="#C4C4C4"/>
<rect x="80" y="8" width="1" height="1" rx="0.5" fill="#C4C4C4"/>
<rect x="91" y="8" width="1" height="1" rx="0.5" fill="#C4C4C4"/>
<rect x="101" y="8" width="1" height="1" rx="0.5" fill="#C4C4C4"/>
<rect x="110" y="8" width="1" height="1" rx="0.5" fill="#C4C4C4"/>
<rect x="118" y="8" width="1" height="1" rx="0.5" fill="#C4C4C4"/>
<rect y="17" width="1" height="1" rx="0.5" fill="#C4C4C4"/>
<rect x="16" y="16" width="3" height="3" rx="1.5" fill="#C4C4C4"/>
<rect x="37" y="16" width="3" height="3" rx="1.5" fill="#C4C4C4"/>
<rect x="65" y="16" width="3" height="3" rx="1.5" fill="#C4C4C4"/>
<rect x="8" y="17" width="1" height="1" rx="0.5" fill="#C4C4C4"/>
<rect x="26" y="16" width="3" height="3" rx="1.5" fill="#C4C4C4"/>
<rect x="51" y="16" width="3" height="3" rx="1.5" fill="#C4C4C4"/>
<rect x="79" y="16" width="3" height="3" rx="1.5" fill="#C4C4C4"/>
<rect x="90" y="16" width="3" height="3" rx="1.5" fill="#C4C4C4"/>
<rect x="100" y="16" width="3" height="3" rx="1.5" fill="#C4C4C4"/>
<rect x="110" y="17" width="1" height="1" rx="0.5" fill="#C4C4C4"/>
<rect x="118" y="17" width="1" height="1" rx="0.5" fill="#C4C4C4"/>
<rect y="27" width="1" height="1" rx="0.5" fill="#C4C4C4"/>
<rect x="16" y="26" width="3" height="3" rx="1.5" fill="#C4C4C4"/>
<rect x="37" y="26" width="3" height="3" rx="1.5" fill="#C4C4C4"/>
<rect x="65" y="26" width="3" height="3" rx="1.5" fill="#C4C4C4"/>
<rect x="8" y="27" width="1" height="1" rx="0.5" fill="#C4C4C4"/>
<rect x="26" y="26" width="3" height="3" rx="1.5" fill="#C4C4C4"/>
<rect x="51" y="26" width="3" height="3" rx="1.5" fill="#C4C4C4"/>
<rect x="79" y="26" width="3" height="3" rx="1.5" fill="#C4C4C4"/>
<rect x="90" y="26" width="3" height="3" rx="1.5" fill="#C4C4C4"/>
<rect x="100" y="26" width="3" height="3" rx="1.5" fill="#C4C4C4"/>
<rect x="110" y="27" width="1" height="1" rx="0.5" fill="#C4C4C4"/>
<rect x="118" y="27" width="1" height="1" rx="0.5" fill="#C4C4C4"/>
<rect y="37" width="1" height="1" rx="0.5" fill="#C4C4C4"/>
<rect x="16" y="36" width="3" height="3" rx="1.5" fill="#C4C4C4"/>
<rect x="36" y="35" width="5" height="5" rx="2.5" fill="#C4C4C4"/>
<rect x="64" y="35" width="5" height="5" rx="2.5" fill="#C4C4C4"/>
<rect x="8" y="37" width="1" height="1" rx="0.5" fill="#C4C4C4"/>
<rect x="26" y="36" width="3" height="3" rx="1.5" fill="#C4C4C4"/>
<rect x="50" y="35" width="5" height="5" rx="2.5" fill="#C4C4C4"/>
<rect x="78" y="35" width="5" height="5" rx="2.5" fill="#C4C4C4"/>
<rect x="90" y="36" width="3" height="3" rx="1.5" fill="#C4C4C4"/>
<rect x="100" y="36" width="3" height="3" rx="1.5" fill="#C4C4C4"/>
<rect x="110" y="37" width="1" height="1" rx="0.5" fill="#C4C4C4"/>
<rect x="118" y="37" width="1" height="1" rx="0.5" fill="#C4C4C4"/>
<rect y="50" width="1" height="1" rx="0.5" fill="#C4C4C4"/>
<rect x="16" y="49" width="3" height="3" rx="1.5" fill="#C4C4C4"/>
<rect x="36" y="48" width="5" height="5" rx="2.5" fill="#C4C4C4"/>
<rect x="62" y="46" width="9" height="9" rx="4.5" fill="#C4C4C4"/>
<rect x="8" y="50" width="1" height="1" rx="0.5" fill="#C4C4C4"/>
<rect x="26" y="49" width="3" height="3" rx="1.5" fill="#C4C4C4"/>
<rect x="48" y="46" width="9" height="9" rx="4.5" fill="#C4C4C4"/>
<rect x="78" y="48" width="5" height="5" rx="2.5" fill="#C4C4C4"/>
<rect x="90" y="49" width="3" height="3" rx="1.5" fill="#C4C4C4"/>
<rect x="100" y="49" width="3" height="3" rx="1.5" fill="#C4C4C4"/>
<rect x="110" y="50" width="1" height="1" rx="0.5" fill="#C4C4C4"/>
<rect x="118" y="50" width="1" height="1" rx="0.5" fill="#C4C4C4"/>
<rect y="64" width="1" height="1" rx="0.5" fill="#C4C4C4"/>
<rect x="16" y="63" width="3" height="3" rx="1.5" fill="#C4C4C4"/>
<rect x="36" y="62" width="5" height="5" rx="2.5" fill="#C4C4C4"/>
<rect x="62" y="60" width="9" height="9" rx="4.5" fill="#C4C4C4"/>
<rect x="8" y="64" width="1" height="1" rx="0.5" fill="#C4C4C4"/>
<rect x="26" y="63" width="3" height="3" rx="1.5" fill="#C4C4C4"/>
<rect x="48" y="60" width="9" height="9" rx="4.5" fill="#C4C4C4"/>
<rect x="78" y="62" width="5" height="5" rx="2.5" fill="#C4C4C4"/>
<rect x="90" y="63" width="3" height="3" rx="1.5" fill="#C4C4C4"/>
<rect x="100" y="63" width="3" height="3" rx="1.5" fill="#C4C4C4"/>
<rect x="110" y="64" width="1" height="1" rx="0.5" fill="#C4C4C4"/>
<rect x="118" y="64" width="1" height="1" rx="0.5" fill="#C4C4C4"/>
<rect y="78" width="1" height="1" rx="0.5" fill="#C4C4C4"/>
<rect x="16" y="77" width="3" height="3" rx="1.5" fill="#C4C4C4"/>
<rect x="36" y="76" width="5" height="5" rx="2.5" fill="#C4C4C4"/>
<rect x="64" y="76" width="5" height="5" rx="2.5" fill="#C4C4C4"/>
<rect x="8" y="78" width="1" height="1" rx="0.5" fill="#C4C4C4"/>
<rect x="26" y="77" width="3" height="3" rx="1.5" fill="#C4C4C4"/>
<rect x="50" y="76" width="5" height="5" rx="2.5" fill="#C4C4C4"/>
<rect x="78" y="76" width="5" height="5" rx="2.5" fill="#C4C4C4"/>
<rect x="90" y="77" width="3" height="3" rx="1.5" fill="#C4C4C4"/>
<rect x="100" y="77" width="3" height="3" rx="1.5" fill="#C4C4C4"/>
<rect x="110" y="78" width="1" height="1" rx="0.5" fill="#C4C4C4"/>
<rect x="118" y="78" width="1" height="1" rx="0.5" fill="#C4C4C4"/>
<rect y="90" width="1" height="1" rx="0.5" fill="#C4C4C4"/>
<rect x="16" y="89" width="3" height="3" rx="1.5" fill="#C4C4C4"/>
<rect x="37" y="89" width="3" height="3" rx="1.5" fill="#C4C4C4"/>
<rect x="65" y="89" width="3" height="3" rx="1.5" fill="#C4C4C4"/>
<rect x="8" y="90" width="1" height="1" rx="0.5" fill="#C4C4C4"/>
<rect x="26" y="89" width="3" height="3" rx="1.5" fill="#C4C4C4"/>
<rect x="51" y="89" width="3" height="3" rx="1.5" fill="#C4C4C4"/>
<rect x="79" y="89" width="3" height="3" rx="1.5" fill="#C4C4C4"/>
<rect x="90" y="89" width="3" height="3" rx="1.5" fill="#C4C4C4"/>
<rect x="100" y="89" width="3" height="3" rx="1.5" fill="#C4C4C4"/>
<rect x="110" y="90" width="1" height="1" rx="0.5" fill="#C4C4C4"/>
<rect x="118" y="90" width="1" height="1" rx="0.5" fill="#C4C4C4"/>
<rect y="100" width="1" height="1" rx="0.5" fill="#C4C4C4"/>
<rect x="16" y="99" width="3" height="3" rx="1.5" fill="#C4C4C4"/>
<rect x="37" y="99" width="3" height="3" rx="1.5" fill="#C4C4C4"/>
<rect x="65" y="99" width="3" height="3" rx="1.5" fill="#C4C4C4"/>
<rect x="8" y="100" width="1" height="1" rx="0.5" fill="#C4C4C4"/>
<rect x="26" y="99" width="3" height="3" rx="1.5" fill="#C4C4C4"/>
<rect x="51" y="99" width="3" height="3" rx="1.5" fill="#C4C4C4"/>
<rect x="79" y="99" width="3" height="3" rx="1.5" fill="#C4C4C4"/>
<rect x="90" y="99" width="3" height="3" rx="1.5" fill="#C4C4C4"/>
<rect x="100" y="99" width="3" height="3" rx="1.5" fill="#C4C4C4"/>
<rect x="110" y="100" width="1" height="1" rx="0.5" fill="#C4C4C4"/>
<rect x="118" y="100" width="1" height="1" rx="0.5" fill="#C4C4C4"/>
<rect y="109" width="1" height="1" rx="0.5" fill="#C4C4C4"/>
<rect x="17" y="109" width="1" height="1" rx="0.5" fill="#C4C4C4"/>
<rect x="38" y="109" width="1" height="1" rx="0.5" fill="#C4C4C4"/>
<rect x="66" y="109" width="1" height="1" rx="0.5" fill="#C4C4C4"/>
<rect x="8" y="109" width="1" height="1" rx="0.5" fill="#C4C4C4"/>
<rect x="27" y="109" width="1" height="1" rx="0.5" fill="#C4C4C4"/>
<rect x="52" y="109" width="1" height="1" rx="0.5" fill="#C4C4C4"/>
<rect x="80" y="109" width="1" height="1" rx="0.5" fill="#C4C4C4"/>
<rect x="91" y="109" width="1" height="1" rx="0.5" fill="#C4C4C4"/>
<rect x="101" y="109" width="1" height="1" rx="0.5" fill="#C4C4C4"/>
<rect x="110" y="109" width="1" height="1" rx="0.5" fill="#C4C4C4"/>
<rect x="118" y="109" width="1" height="1" rx="0.5" fill="#C4C4C4"/>
<rect y="117" width="1" height="1" rx="0.5" fill="#C4C4C4"/>
<rect x="17" y="117" width="1" height="1" rx="0.5" fill="#C4C4C4"/>
<rect x="38" y="117" width="1" height="1" rx="0.5" fill="#C4C4C4"/>
<rect x="66" y="117" width="1" height="1" rx="0.5" fill="#C4C4C4"/>
<rect x="8" y="117" width="1" height="1" rx="0.5" fill="#C4C4C4"/>
<rect x="27" y="117" width="1" height="1" rx="0.5" fill="#C4C4C4"/>
<rect x="52" y="117" width="1" height="1" rx="0.5" fill="#C4C4C4"/>
<rect x="80" y="117" width="1" height="1" rx="0.5" fill="#C4C4C4"/>
<rect x="91" y="117" width="1" height="1" rx="0.5" fill="#C4C4C4"/>
<rect x="101" y="117" width="1" height="1" rx="0.5" fill="#C4C4C4"/>
<rect x="110" y="117" width="1" height="1" rx="0.5" fill="#C4C4C4"/>
<rect x="118" y="117" width="1" height="1" rx="0.5" fill="#C4C4C4"/>
</svg>
