<svg width="163" height="388" viewBox="0 0 163 388" fill="none" xmlns="http://www.w3.org/2000/svg">
<path d="M414.736 84.5353C413.921 74.4822 414.057 64.2933 412.019 54.5798C408.147 35.9001 395.581 24.2167 377.92 18.5109C352.72 10.3598 326.704 5.80868 300.28 3.29541C298.039 3.09163 295.661 3.36334 293.42 2.95578C255.313 -3.70101 221.418 7.16721 189.628 27.4772C178.896 34.3378 167.756 40.6549 156.616 46.8362C134.404 59.1988 110.426 59.6064 86.0407 57.0252C63.8967 54.6477 41.7527 52.542 19.5408 55.5308C8.12919 57.0931 -0.837101 67.4179 1.06484 78.6257C9.216 127.193 22.3937 173.994 53.436 213.595C65.2552 228.607 78.0933 242.872 90.8635 257.068C105.332 273.167 116.132 291.779 125.981 310.73C145.612 348.633 176.247 372.815 216.595 384.498C226.377 387.351 237.381 387.079 247.705 386.468C257.487 385.857 264.008 378.453 268.559 370.302C272.702 362.762 276.574 354.746 278.816 346.459C284.522 325.742 295.729 309.304 313.798 297.62C352.855 272.284 373.981 233.77 390.758 192.131C400.879 167.066 407.876 141.118 412.087 114.423C413.582 104.574 413.853 94.5205 414.736 84.5353ZM279.563 19.6657C304.899 19.1902 328.334 24.896 351.225 33.183C372.758 41.0625 388.313 55.1232 392.049 78.6257C394.019 91.1242 395.649 104.234 393.951 116.665C389.196 151.307 378.803 184.455 359.173 213.867C340.968 241.106 318.349 262.91 284.657 270.178C273.517 272.555 262.717 276.495 251.849 280.027C235.818 285.19 222.776 294.971 210.821 306.519C199.342 317.591 193.908 318.406 180.594 310.119C173.666 305.771 167.009 300.745 161.303 294.903C135.695 268.887 110.426 242.532 85.1577 216.177C78.5688 209.248 71.7082 202.388 66.4779 194.44C53.0285 173.994 42.6358 152.326 43.6547 126.853C44.4698 106.136 58.5985 91.7355 79.316 91.1921C90.7276 90.9204 102.207 91.5318 113.551 90.9883C132.91 90.1053 151.725 86.5731 167.824 74.8219C177.741 67.5537 187.387 59.8101 196.693 51.7948C220.875 31.0773 247.977 18.5109 279.563 19.6657Z" stroke="white" stroke-opacity="0.3" stroke-miterlimit="10"/>
<path d="M279.563 19.6657C247.909 18.511 220.874 31.0773 196.76 51.727C187.386 59.7423 177.809 67.4859 167.892 74.754C151.793 86.5053 132.977 90.0374 113.618 90.9205C102.207 91.4639 90.7952 90.7846 79.3835 91.1242C58.666 91.6677 44.5373 106.068 43.7222 126.786C42.7033 152.258 53.164 173.926 66.5455 194.372C71.7758 202.32 78.6364 209.18 85.2252 216.109C110.494 242.464 135.762 268.82 161.371 294.835C167.076 300.609 173.733 305.704 180.662 310.051C193.975 318.338 199.409 317.523 210.889 306.451C222.844 294.903 235.954 285.122 251.916 279.96C262.785 276.427 273.585 272.556 284.725 270.11C318.348 262.842 340.968 241.106 359.172 213.799C378.803 184.387 389.196 151.239 393.95 116.597C395.649 104.234 394.018 91.0563 392.049 78.5579C388.313 55.1233 372.69 41.0625 351.225 33.1831C328.402 24.8281 304.899 19.1902 279.563 19.6657ZM231.471 239.136C218.225 239.136 204.911 239.951 191.734 238.864C181.001 237.981 169.522 236.69 159.944 232.275C145.204 225.415 131.279 216.38 117.898 206.939C104.584 197.497 95.6859 183.98 89.7084 168.9C82.644 151.103 90.3876 135.684 108.864 130.454C114.977 128.688 121.362 127.804 127.679 126.718C146.019 123.661 163.069 117.48 177.062 104.71C190.851 92.0752 204.436 79.2371 217.953 66.3311C230.452 54.3761 245.124 46.3608 261.834 42.1493C288.393 35.3567 313.594 41.538 337.775 51.9307C353.466 58.6554 364.267 70.7463 369.633 87.5242C374.252 101.925 373.641 116.393 371.806 130.861C369.022 153.073 359.648 173.111 348.236 191.791C329.692 222.222 302.929 240.019 265.841 239.136C254.294 238.932 242.882 239.136 231.471 239.136Z" stroke="white" stroke-opacity="0.3" stroke-miterlimit="10"/>
<path d="M231.471 239.136C242.883 239.136 254.294 238.932 265.774 239.204C302.861 240.019 329.557 222.29 348.168 191.859C359.58 173.179 369.022 153.141 371.739 130.929C373.505 116.393 374.184 101.924 369.565 87.592C364.131 70.6784 353.331 58.5875 337.64 51.8628C313.458 41.47 288.325 35.2887 261.698 42.0814C244.988 46.3607 230.384 54.3081 217.818 66.2631C204.3 79.1692 190.715 92.0072 176.926 104.642C163.001 117.412 145.952 123.525 127.544 126.65C121.226 127.736 114.909 128.62 108.728 130.386C90.252 135.616 82.5084 151.035 89.5727 168.832C95.6182 183.912 104.449 197.497 117.762 206.871C131.144 216.312 145.069 225.347 159.809 232.207C169.386 236.69 180.798 237.913 191.598 238.796C204.912 239.951 218.225 239.136 231.471 239.136ZM288.869 63.614C289.005 63.614 290.839 63.614 292.673 63.614C320.862 63.8857 341.987 81.0711 349.051 108.174C353.67 125.902 348.236 141.933 341.715 157.284C330.1 184.591 311.081 203.882 280.106 209.859C266.589 212.509 253.819 210.742 240.845 208.705C223.252 205.988 205.863 202.116 190.24 193.014C175.635 184.523 171.356 170.938 178.76 155.654C180.73 151.579 183.175 147.639 185.824 143.971C200.904 123.389 215.78 102.74 234.46 85.0787C249.471 70.8821 266.317 62.663 288.869 63.614Z" stroke="white" stroke-opacity="0.3" stroke-miterlimit="10"/>
</svg>
