<svg width="322" height="294" viewBox="0 0 322 294" fill="none" xmlns="http://www.w3.org/2000/svg">
<path d="M-78 1.53346C-77.2143 -8.15838 -77.3452 -17.9812 -75.3809 -27.3456C-71.6488 -45.3541 -59.5355 -56.6176 -42.5116 -62.1183C-18.2197 -69.9766 6.85792 -74.3641 32.3284 -76.7871C34.4891 -76.9835 36.7808 -76.7216 38.9415 -77.1145C75.674 -83.5321 108.347 -73.0544 138.99 -53.4743C149.335 -46.8603 160.074 -40.7701 170.812 -34.8109C192.223 -22.8926 215.336 -22.4997 238.842 -24.9881C260.188 -27.2801 281.533 -29.3102 302.944 -26.4288C313.944 -24.9226 322.587 -14.9689 320.754 -4.16377C312.896 42.6583 300.194 87.7777 270.271 125.956C258.878 140.428 246.503 154.18 234.193 167.866C220.247 183.386 209.836 201.329 200.342 219.6C181.419 256.141 151.889 279.453 112.996 290.717C103.567 293.467 92.9599 293.205 83.0074 292.616C73.5788 292.027 67.293 284.889 62.906 277.031C58.912 269.762 55.1798 262.034 53.0191 254.045C47.519 234.072 36.7153 218.225 19.2985 206.961C-18.3506 182.535 -38.7139 145.405 -54.8867 105.262C-64.6427 81.0982 -71.3868 56.0828 -75.4464 30.347C-76.8869 20.8516 -77.1488 11.1598 -78 1.53346ZM52.2988 -61.0051C27.876 -61.4635 5.28647 -55.9627 -16.7792 -47.9735C-37.5353 -40.3772 -52.5295 -26.8217 -56.1308 -4.16377C-58.0296 7.88554 -59.601 20.5242 -57.9641 32.508C-53.3807 65.9056 -43.3628 97.8625 -24.44 126.218C-6.89221 152.477 14.9116 173.498 47.388 180.505C58.1262 182.797 68.5371 186.595 79.0133 190C94.4659 194.977 107.037 204.407 118.561 215.54C129.627 226.214 134.865 227 147.698 219.01C154.377 214.819 160.794 209.973 166.294 204.342C190.979 179.261 215.336 153.852 239.693 128.444C246.045 121.765 252.658 115.151 257.699 107.489C270.664 87.7777 280.682 66.8879 279.7 42.3309C278.914 22.3578 265.295 8.47491 245.324 7.95103C234.324 7.68908 223.259 8.27845 212.324 7.75457C193.663 6.90326 175.526 3.49801 160.008 -7.83096C150.449 -14.8379 141.151 -22.3032 132.18 -30.0305C108.871 -50.0035 82.7455 -62.1183 52.2988 -61.0051Z" stroke="white" stroke-opacity="0.3" stroke-miterlimit="10"/>
<path d="M52.8333 -60.9294C83.314 -62.0412 109.347 -49.9423 132.567 -30.061C141.594 -22.3439 150.816 -14.8883 160.366 -7.89061C175.868 3.42346 193.986 6.82422 212.628 7.67441C223.617 8.1976 234.605 7.54361 245.594 7.87061C265.544 8.3938 279.149 22.2584 279.934 42.2052C280.915 66.7299 270.842 87.5923 257.956 107.278C252.92 114.929 246.314 121.535 239.969 128.205C215.637 153.58 191.305 178.955 166.645 204.003C161.151 209.562 154.741 214.467 148.069 218.652C135.249 226.631 130.016 225.846 118.962 215.186C107.45 204.068 94.826 194.651 79.4549 189.681C68.9894 186.28 58.5893 182.552 47.8622 180.198C15.4847 173.2 -6.29654 152.272 -23.8262 125.982C-42.7294 97.6638 -52.737 65.749 -57.3157 32.3953C-58.9509 20.4927 -57.3811 7.80521 -55.4842 -4.22826C-51.8867 -26.791 -36.8426 -40.3286 -16.1733 -47.915C5.80415 -55.9591 28.4357 -61.3872 52.8333 -60.9294ZM99.143 150.376C111.898 150.376 124.718 151.16 137.407 150.114C147.742 149.264 158.796 148.021 168.019 143.77C182.213 137.165 195.622 128.467 208.507 119.376C221.327 110.286 229.896 97.2714 235.652 82.7528C242.454 65.6182 234.998 50.7725 217.207 45.7368C211.32 44.0364 205.171 43.1862 199.088 42.1398C181.428 39.1969 165.01 33.2455 151.536 20.9505C138.258 8.7862 125.176 -3.57426 112.159 -16.0001C100.124 -27.5104 85.9958 -35.2275 69.9051 -39.2823C44.3301 -45.8222 20.0634 -39.8709 -3.22231 -29.8648C-18.3318 -23.3902 -28.7319 -11.7492 -33.8992 4.40445C-38.347 18.2691 -37.7583 32.1991 -35.9923 46.1292C-33.3105 67.5147 -24.2841 86.8075 -13.2953 104.792C4.56138 134.091 30.3326 151.226 66.046 150.376C77.1655 150.179 88.1543 150.376 99.143 150.376Z" stroke="white" stroke-opacity="0.3" stroke-miterlimit="10"/>
<path d="M98.6133 150.731C87.6043 150.731 76.5952 150.534 65.5207 150.796C29.7413 151.582 3.98805 134.49 -13.9672 105.151C-24.9762 87.1411 -34.0849 67.8219 -36.7061 46.4071C-38.4098 32.3925 -39.0651 18.4433 -34.6091 4.6252C-29.3667 -11.6815 -18.9474 -23.3385 -3.81001 -29.8219C19.5186 -39.8417 43.7647 -45.8012 69.4525 -39.2523C85.5728 -35.1265 99.6618 -27.4643 111.785 -15.9383C124.825 -3.49541 137.931 8.88198 151.234 21.0629C164.668 33.3748 181.116 39.2688 198.874 42.2813C204.968 43.3291 211.063 44.1804 217.026 45.8832C234.85 50.9258 242.321 65.7918 235.505 82.9498C229.673 97.4883 221.154 110.586 208.31 119.624C195.401 128.726 181.967 137.436 167.747 144.051C158.508 148.373 147.499 149.552 137.079 150.403C124.236 151.517 111.392 150.731 98.6133 150.731ZM43.2405 -18.4923C43.1094 -18.4923 41.3401 -18.4923 39.5708 -18.4923C12.3759 -18.2304 -8.00393 -1.66172 -14.819 24.4683C-19.2751 41.5609 -14.0327 57.0163 -7.74181 71.8167C3.46381 98.1432 21.8122 116.742 51.6939 122.505C64.7343 125.059 77.0539 123.356 89.5702 121.392C106.542 118.772 123.318 115.039 138.39 106.264C152.479 98.0777 156.607 84.98 149.465 70.245C147.564 66.3157 145.205 62.5173 142.649 58.9809C128.102 39.1378 113.751 19.2292 95.73 2.20212C81.2479 -11.485 64.9964 -19.4092 43.2405 -18.4923Z" stroke="white" stroke-opacity="0.3" stroke-miterlimit="10"/>
<path d="M43.6037 -18.9279C65.307 -19.8492 81.4537 -11.8868 95.9661 1.86636C113.943 19.0414 128.26 39.046 142.772 58.919C145.387 62.4724 147.675 66.2891 149.571 70.2374C156.696 85.0434 152.578 98.1386 138.523 106.43C123.422 115.248 106.752 119.064 89.8212 121.631C77.4007 123.539 65.1109 125.25 52.0366 122.749C22.2273 116.959 3.98876 98.2702 -7.2551 71.8167C-13.5307 56.9449 -18.8258 41.415 -14.3152 24.2399C-7.45121 -2.01611 12.8139 -18.6647 39.9429 -18.9279C41.708 -18.9937 43.473 -18.9279 43.6037 -18.9279ZM44.6497 7.59136C21.4429 7.59136 6.79972 26.6747 11.7026 50.8908C14.6443 65.2362 21.9659 76.5546 33.3405 84.6486C52.1674 98.0728 70.6674 98.2702 90.1481 86.6885C100.085 80.7661 104.791 67.8026 100.607 56.6158C96.8813 46.8109 92.3707 36.9402 86.2912 28.5172C76.6162 15.1589 63.3459 6.86751 44.6497 7.59136Z" stroke="white" stroke-opacity="0.3" stroke-miterlimit="10"/>
<path d="M50.4271 29.0225C60.0405 28.6504 66.864 32.9126 71.8388 39.7794C74.9648 44.1093 77.2841 49.1833 79.2001 54.2234C81.385 59.974 78.9312 66.6378 73.822 69.6822C63.8052 75.6357 54.2927 75.5681 44.612 68.6336C38.7969 64.4729 34.9986 58.6886 33.486 51.2805C30.965 38.8661 38.4944 29.0225 50.4271 29.0225Z" stroke="white" stroke-opacity="0.3" stroke-miterlimit="10"/>
</svg>
