<svg width="258" height="58" fill="none" xmlns="http://www.w3.org/2000/svg"><path d="M76.218 19.592c1.976 0 3.727.503 5.252 1.508 1.543 1.005 2.643 2.418 3.302 4.238h-4.394c-.815-1.595-2.201-2.392-4.16-2.392-1.092 0-2.063.243-2.912.728-.832.485-1.482 1.179-1.95 2.08-.468.901-.702 1.941-.702 3.12s.234 2.219.702 3.12a5.205 5.205 0 001.95 2.106c.85.485 1.82.728 2.912.728 1.941 0 3.328-.797 4.16-2.392h4.394c-.659 1.82-1.76 3.233-3.302 4.238-1.525.988-3.276 1.482-5.252 1.482-1.699 0-3.259-.39-4.68-1.17a8.958 8.958 0 01-3.38-3.302c-.815-1.421-1.222-3.025-1.222-4.81 0-1.768.407-3.354 1.222-4.758a8.901 8.901 0 013.38-3.328c1.421-.797 2.981-1.196 4.68-1.196zm22.192 0c1.716 0 3.276.399 4.68 1.196a8.705 8.705 0 013.354 3.328c.832 1.404 1.248 2.99 1.248 4.758 0 1.785-.416 3.389-1.248 4.81a8.758 8.758 0 01-3.354 3.302c-1.421.797-2.981 1.196-4.68 1.196-1.698 0-3.258-.399-4.68-1.196a8.958 8.958 0 01-3.38-3.302c-.814-1.421-1.222-3.025-1.222-4.81 0-1.768.408-3.354 1.222-4.758a8.901 8.901 0 013.38-3.328c1.422-.797 2.982-1.196 4.68-1.196zm0 3.354c-1.092 0-2.062.243-2.912.728-.832.485-1.482 1.179-1.95 2.08-.468.901-.702 1.941-.702 3.12s.234 2.219.702 3.12a5.205 5.205 0 001.95 2.106c.85.485 1.82.728 2.912.728 1.092 0 2.054-.243 2.886-.728a5.246 5.246 0 001.95-2.08c.468-.901.702-1.95.702-3.146s-.234-2.236-.702-3.12c-.468-.901-1.118-1.595-1.95-2.08-.832-.485-1.794-.728-2.886-.728zM128.34 38h-3.666l-8.216-12.584V38h-3.666V19.8h3.666l8.216 12.584V19.8h3.666V38zm18.825-5.278c0 .97-.269 1.872-.806 2.704-.52.832-1.274 1.5-2.262 2.002-.971.503-2.106.754-3.406.754-1.993 0-3.597-.46-4.81-1.378-1.213-.936-1.82-2.245-1.82-3.926h3.9c.069.78.329 1.378.78 1.794.468.399 1.118.598 1.95.598.832 0 1.491-.217 1.976-.65.485-.433.728-.997.728-1.69 0-.555-.173-1.005-.52-1.352a3.303 3.303 0 00-1.248-.806c-.485-.19-1.179-.407-2.08-.65-1.161-.295-2.106-.598-2.834-.91a4.745 4.745 0 01-1.872-1.456c-.52-.676-.78-1.586-.78-2.73 0-1.092.269-2.045.806-2.86.555-.832 1.317-1.465 2.288-1.898.971-.45 2.071-.676 3.302-.676 1.889 0 3.406.433 4.55 1.3 1.144.85 1.768 2.15 1.872 3.9h-4.004c-.069-.693-.329-1.24-.78-1.638-.451-.416-1.031-.624-1.742-.624-.745 0-1.352.19-1.82.572-.451.364-.676.927-.676 1.69 0 .572.165 1.04.494 1.404.347.347.771.615 1.274.806.503.19 1.196.399 2.08.624 1.161.295 2.106.598 2.834.91.728.312 1.343.806 1.846 1.482.52.659.78 1.56.78 2.704zm9.335-12.87v11.18c0 1.248.312 2.193.936 2.834.641.641 1.551.962 2.73.962 1.178 0 2.088-.32 2.73-.962.641-.641.962-1.586.962-2.834v-11.18h3.64v11.18c0 1.543-.347 2.851-1.04 3.926a6.392 6.392 0 01-2.704 2.418c-1.11.537-2.332.806-3.666.806-1.318 0-2.531-.269-3.64-.806-1.092-.537-1.968-1.343-2.626-2.418-.659-1.075-.988-2.383-.988-3.926v-11.18h3.666zm20.695 15.366h5.824V38h-9.49V19.852h3.666v15.366zm14.169-12.61v4.758h6.032v2.808h-6.032v5.018h6.812V38h-10.478V19.8h10.478v2.808h-6.812zM219.675 38h-3.666l-8.216-12.584V38h-3.666V19.8h3.666l8.216 12.584V19.8h3.666V38zm18.487-18.148v2.808h-4.914V38h-3.64V22.66h-4.888v-2.808h13.442zm19.396 0l-6.136 11.908V38h-3.666v-6.24l-6.136-11.908h4.108l3.874 8.554 3.848-8.554h4.108z" fill="#75F"/><path d="M27 32l25-16v26L27 58V32z" fill="#00C697" fill-opacity=".7"/><path d="M25 32L0 16v26l25 16V32z" fill="#9360FF" fill-opacity=".7"/><path d="M27 26l25 16V16L27 0v26z" fill="#00C697" fill-opacity=".7"/><path d="M25 26L0 42V16L25 0v26z" fill="#9360FF" fill-opacity=".7"/></svg>