<svg width="60" height="60" viewBox="0 0 60 60" fill="none" xmlns="http://www.w3.org/2000/svg">
<circle cx="30" cy="30" r="30" fill="white"/>
<path d="M22.6485 46.5384C21.2003 46.536 19.7751 46.1741 18.4986 45.4846C17.2222 44.7951 16.1339 43.7993 15.3299 42.5852C14.5259 41.371 14.0309 39.976 13.8888 38.5233C13.7466 37.0705 13.9616 35.6049 14.5147 34.2558C14.9444 33.2129 15.5664 32.2615 16.3478 31.4522L16.3611 31.4405L16.3728 31.4539C16.7595 31.8791 17.0154 32.4084 17.1093 32.9775C17.2118 33.5905 17.1202 34.2205 16.8477 34.7782C16.3624 35.7736 16.1367 36.8772 16.1919 37.9849C16.2471 39.0926 16.5814 40.1679 17.1632 41.1092C17.745 42.0506 18.5552 42.8269 19.5173 43.3651C20.4793 43.9033 21.5615 44.1855 22.6618 44.1851C23.5288 44.187 24.3876 44.0156 25.1885 43.6809C25.9894 43.3461 26.7165 42.8546 27.3278 42.2348L28.6792 40.8658L16.5144 28.5932C15.6687 27.7471 15.0001 26.7384 14.5484 25.6269C14.0967 24.5154 13.871 23.3237 13.8848 22.1226C13.9015 19.7809 14.8377 17.5412 16.4885 15.8935C18.1393 14.2458 20.3703 13.3243 22.6935 13.3306H22.7218C25.0099 13.3341 27.2066 14.2361 28.8459 15.8453L28.8575 15.857L28.8325 15.8822C28.4181 16.2974 27.8836 16.5691 27.3061 16.6583C27.166 16.6798 27.0245 16.6905 26.8828 16.6902C26.4438 16.6899 26.011 16.5852 25.6197 16.3845C24.4161 15.7735 23.054 15.5543 21.7215 15.7571C20.389 15.9599 19.1518 16.5747 18.1808 17.5167C17.5624 18.1167 17.0699 18.8358 16.7324 19.6314C16.3949 20.4269 16.2194 21.2826 16.2161 22.1478C16.2055 23.0328 16.3712 23.911 16.7035 24.7302C17.0359 25.5493 17.528 26.2929 18.1508 26.9168L19.224 27.9986L31.4005 15.7243C32.2307 14.8826 33.2183 14.2152 34.3061 13.7608C35.3939 13.3064 36.5603 13.074 37.7378 13.077C39.1858 13.0797 40.6109 13.4418 41.8871 14.1314C43.1633 14.821 44.2514 15.8169 45.0552 17.0309C45.859 18.245 46.3538 19.64 46.4959 21.0926C46.638 22.5451 46.423 24.0107 45.8699 25.3596C45.4436 26.4015 44.825 27.3523 44.0469 28.1615L44.0335 28.1749L44.0219 28.1615C43.6202 27.7195 43.36 27.1657 43.2753 26.5724C43.1906 25.9791 43.2853 25.3738 43.5469 24.8355C44.0317 23.8401 44.2571 22.7366 44.2016 21.6291C44.1462 20.5215 43.8119 19.4465 43.2301 18.5053C42.6484 17.5641 41.8385 16.7878 40.8767 16.2495C39.9149 15.7112 38.8329 15.4287 37.7328 15.4287C36.8659 15.4272 36.0072 15.5988 35.2064 15.9335C34.4056 16.2682 33.6784 16.7595 33.0669 17.3789L31.7204 18.7379L43.8969 31.0138C47.3647 34.5094 47.3963 40.1787 43.9752 43.6509C42.3345 45.3097 40.1121 46.2511 37.7884 46.2716C35.4646 46.292 33.2263 45.3898 31.5571 43.7601L31.5438 43.7483L31.5571 43.7349C31.9956 43.33 32.545 43.0677 33.1336 42.9823C33.7222 42.8969 34.3226 42.9924 34.8566 43.2561C36.0795 43.8567 37.4582 44.0564 38.7993 43.8273C40.1408 43.6009 41.3774 42.9544 42.3338 41.9795C44.8334 39.4245 44.8051 35.2603 42.2588 32.6919L41.1773 31.6L28.9858 43.8911C28.1556 44.7328 27.168 45.4002 26.0802 45.8546C24.9924 46.309 23.826 46.5414 22.6485 46.5384ZM30.3356 39.2011L39.5259 29.937L30.0657 20.3992L20.8754 29.6632L30.3356 39.2011Z" fill="#63D1A9"/>
</svg>
